<svg xmlns="http://www.w3.org/2000/svg" viewBox="0 0 512 512">
<circle cx="214.629" cy="105.216" r="10.127" fill="#92deeb">
</circle><circle cx="23.643" cy="210.278" r="11.817" fill="#fdca5c"></circle><g fill="#fff">
<circle cx="98.584" cy="252.237" r="7.596"></circle><circle cx="247.551" cy="19.274" r="16.881"></circle></g>
<circle cx="478.232" cy="267.418" r="21.942" fill="#92deeb"></circle>
<path d="M236.584 464.317c-12.877 0-23.352-10.478-23.352-23.352s10.476-23.352 23.352-23.352c12.874 0 23.352 10.478 23.352 23.352s-10.478 23.352-23.352 23.352zm0-43.888c-11.323 0-20.534 9.216-20.534 20.534s9.211 20.534 20.534 20.534 20.534-9.216 20.534-20.534c-.001-11.318-9.211-20.534-20.534-20.534z" fill="#232e38"></path><path d="M222.245 153.49c-46.61 0-84.393 37.78-84.393 84.393s37.783 84.393 84.393 84.393c46.615 0 84.398-37.78 84.398-84.393s-37.783-84.393-84.398-84.393zm0 126.587c-23.304 0-42.189-18.888-42.189-42.194s18.888-42.196 42.189-42.196c23.306 0 42.202 18.89 42.202 42.196s-18.896 42.194-42.202 42.194z" fill="#f77b55"></path><circle cx="425.343" cy="440.96" r="68.641" fill="#fff"></circle><circle cx="98.582" cy="361.549" r="43.597" fill="#f77b55"></circle><circle cx="378.418" cy="81.725" r="54.016" fill="#fdca5c"></circle><circle cx="115.89" cy="131.533" r="26.301" fill="#fff"></circle><path d="M372.041 237.883c0 9.672-7.836 17.513-17.505 17.513-9.677 0-17.513-7.841-17.513-17.513 0-9.669 7.836-17.51 17.513-17.51 9.671-.001 17.505 7.841 17.505 17.51z" fill="#fdca5c"></path><g fill="#232e38"><path d="M214.639 117.75c-6.904 0-12.521-5.617-12.521-12.521 0-6.904 5.617-12.524 12.521-12.524 6.904 0 12.521 5.619 12.521 12.524 0 6.904-5.616 12.521-12.521 12.521zm0-20.255c-4.262 0-7.734 3.469-7.734 7.734s3.469 7.731 7.734 7.731 7.734-3.466 7.734-7.731-3.471-7.734-7.734-7.734zM23.643 224.494c-7.839 0-14.211-6.374-14.211-14.211 0-7.834 6.372-14.211 14.211-14.211 7.836 0 14.211 6.377 14.211 14.211-.001 7.839-6.375 14.211-14.211 14.211zm0-23.629c-5.197 0-9.423 4.227-9.423 9.418 0 5.197 4.227 9.421 9.423 9.421 5.194 0 9.423-4.224 9.423-9.421 0-5.191-4.229-9.418-9.423-9.418zM98.584 262.223c-5.509 0-9.989-4.483-9.989-9.992 0-5.509 4.48-9.989 9.989-9.989s9.989 4.48 9.989 9.989c0 5.51-4.48 9.992-9.989 9.992zm0-15.191c-2.867 0-5.202 2.33-5.202 5.197s2.335 5.202 5.202 5.202 5.202-2.335 5.202-5.202-2.334-5.197-5.202-5.197zM247.551 38.548c-10.627 0-19.274-8.645-19.274-19.274S236.924 0 247.551 0s19.272 8.645 19.272 19.274-8.643 19.274-19.272 19.274zm0-33.756c-7.987 0-14.487 6.497-14.487 14.482s6.5 14.482 14.487 14.482c7.985 0 14.484-6.497 14.484-14.482 0-7.987-6.5-14.482-14.484-14.482z"></path></g><circle cx="478.232" cy="267.418" r="21.942" fill="#f77b55"></circle><g fill="#232e38"><path d="M478.23 291.761c-13.42 0-24.338-10.918-24.338-24.338 0-13.42 10.918-24.34 24.338-24.34 13.42 0 24.338 10.921 24.338 24.34s-10.919 24.338-24.338 24.338zm0-43.884c-10.78 0-19.551 8.768-19.551 19.546 0 10.78 8.771 19.548 19.551 19.548 10.778 0 19.548-8.768 19.548-19.548-.003-10.78-8.771-19.546-19.548-19.546zM236.584 465.303c-13.422 0-24.338-10.918-24.338-24.338 0-13.417 10.916-24.338 24.338-24.338 13.42 0 24.335 10.921 24.335 24.338 0 13.42-10.916 24.338-24.335 24.338zm0-43.883c-10.778 0-19.548 8.771-19.548 19.546 0 10.78 8.771 19.551 19.548 19.551s19.548-8.771 19.548-19.551c0-10.776-8.771-19.546-19.548-19.546zM222.245 324.669c-47.854 0-86.787-38.935-86.787-86.787 0-47.854 38.932-86.787 86.787-86.787 47.857 0 86.792 38.932 86.792 86.787 0 47.852-38.935 86.787-86.792 86.787zm0-168.783c-45.212 0-81.997 36.785-81.997 81.997s36.785 81.997 81.997 81.997c45.22 0 82.005-36.785 82.005-81.997s-36.785-81.997-82.005-81.997zm0 126.59c-24.586 0-44.585-20.001-44.585-44.593 0-24.586 20.001-44.59 44.585-44.59 24.589 0 44.595 20.001 44.595 44.59s-20.006 44.593-44.595 44.593zm0-84.393c-21.942 0-39.795 17.853-39.795 39.8s17.853 39.803 39.795 39.803c21.949 0 39.808-17.856 39.808-39.803 0-21.947-17.858-39.8-39.808-39.8zM425.332 512c-39.171 0-71.035-31.864-71.035-71.035s31.864-71.035 71.035-71.035 71.035 31.864 71.035 71.035S464.503 512 425.332 512zm0-137.277c-36.529 0-66.248 29.714-66.248 66.243s29.719 66.248 66.248 66.248 66.248-29.719 66.248-66.248-29.719-66.243-66.248-66.243zM98.584 407.547c-25.364 0-45.998-20.641-45.998-46.001 0-25.364 20.636-45.998 45.998-45.998 25.359 0 45.993 20.634 45.993 45.998.003 25.362-20.631 46.001-45.993 46.001zm0-87.207c-22.725 0-41.211 18.483-41.211 41.208 0 22.723 18.486 41.206 41.211 41.206 22.72 0 41.206-18.483 41.206-41.206 0-22.724-18.486-41.208-41.206-41.208zM378.408 138.13c-31.101 0-56.405-25.303-56.405-56.404 0-31.104 25.303-56.41 56.405-56.41s56.402 25.306 56.402 56.41c.002 31.101-25.298 56.404-56.402 56.404zm0-108.022c-28.46 0-51.617 23.155-51.617 51.62 0 28.46 23.158 51.612 51.617 51.612s51.615-23.153 51.615-51.612c.002-28.465-23.153-51.62-51.615-51.62zM115.898 160.228c-15.823 0-28.695-12.872-28.695-28.698 0-15.823 12.872-28.698 28.695-28.698s28.695 12.874 28.695 28.698c.002 15.826-12.869 28.698-28.695 28.698zm0-52.606c-13.181 0-23.908 10.726-23.908 23.908 0 13.184 10.726 23.908 23.908 23.908s23.908-10.724 23.908-23.908c-.001-13.181-10.727-23.908-23.908-23.908zM354.536 257.789c-10.977 0-19.907-8.927-19.907-19.907 0-10.975 8.929-19.904 19.907-19.904 10.972 0 19.899 8.929 19.899 19.904.002 10.978-8.927 19.907-19.899 19.907zm0-35.02c-8.338 0-15.119 6.781-15.119 15.114 0 8.338 6.781 15.117 15.119 15.117 8.333 0 15.112-6.779 15.112-15.117.002-8.333-6.78-15.114-15.112-15.114z"></path><path d="M376.823 394.857a2.387 2.387 0 0 1-1.692-.699l-94.897-94.904a2.394 2.394 0 1 1 3.384-3.387l94.897 94.904a2.392 2.392 0 0 1-1.692 4.086zM162.582 180.611a2.377 2.377 0 0 1-1.692-.701l-28.101-28.104a2.392 2.392 0 0 1 0-3.387 2.388 2.388 0 0 1 3.384 0l28.101 28.104a2.392 2.392 0 0 1 0 3.387 2.38 2.38 0 0 1-1.692.701zM281.926 180.603a2.38 2.38 0 0 1-1.692-.701 2.397 2.397 0 0 1 0-3.387l58.332-58.332a2.394 2.394 0 1 1 3.384 3.387l-58.332 58.332a2.38 2.38 0 0 1-1.692.701zM337.023 240.279l-30.379-.003a2.394 2.394 0 1 1 0-4.79h30.379a2.394 2.394 0 0 1 2.394 2.396 2.395 2.395 0 0 1-2.394 2.397zM129.417 333.11a2.39 2.39 0 0 1-1.692-.701 2.388 2.388 0 0 1 0-3.384l33.155-33.157a2.394 2.394 0 1 1 3.384 3.387l-33.155 33.155c-.466.464-1.08.7-1.692.7z">
</path></g></svg>